<svg width="25" height="19" viewBox="0 0 25 19" fill="none" xmlns="http://www.w3.org/2000/svg">
<path d="M22.6338 7.33333L21.2369 8.49123V4.74185C21.2369 3.45531 20.8488 2.34336 20.0728 1.40602C19.2967 0.468672 18.3654 0 17.2789 0H7.31392C6.2274 0 5.2961 0.468672 4.52001 1.40602C3.74393 2.34336 3.35589 3.45531 3.35589 4.74185C3.35589 5.07268 3.44902 5.34837 3.63528 5.56892C3.82154 5.78947 4.05436 5.89975 4.33375 5.89975C4.64419 5.89975 4.89254 5.78947 5.0788 5.56892C5.26506 5.34837 5.35819 5.07268 5.35819 4.74185C5.35819 4.0802 5.55221 3.51963 5.94025 3.06015C6.32829 2.60067 6.78618 2.37093 7.31392 2.37093H17.2789C17.8066 2.37093 18.2645 2.60067 18.6525 3.06015C19.0406 3.51963 19.2346 4.0802 19.2346 4.74185V8.38095L17.8376 7.16792C17.2478 6.76358 16.7977 6.89223 16.4872 7.55388C16.1147 8.2523 16.2079 8.80368 16.7666 9.20802L20.259 11.7995L23.798 9.20802C24.3257 8.80368 24.4344 8.2523 24.1239 7.55388C23.6583 7.00251 23.1616 6.92899 22.6338 7.33333ZM20.259 12.9574C19.9486 12.9574 19.7002 13.0677 19.514 13.2882C19.3277 13.5088 19.2346 13.7845 19.2346 14.1153C19.2346 14.7769 19.0406 15.3375 18.6525 15.797C18.2645 16.2565 17.8066 16.4862 17.2789 16.4862H7.31392C6.78618 16.4862 6.32829 16.2565 5.94025 15.797C5.55221 15.3375 5.35819 14.7769 5.35819 14.1153V10.4762L6.75514 11.6892C6.81723 11.6892 6.91036 11.7076 7.03453 11.7444C7.1587 11.7811 7.25183 11.7995 7.31392 11.7995C7.56227 11.7995 7.82614 11.6341 8.10553 11.3033C8.47805 10.6048 8.38492 10.0535 7.82614 9.64912L4.33375 7.05764L0.794806 9.64912C0.267068 10.0535 0.158416 10.6048 0.46885 11.3033C0.810328 11.9282 1.27598 12.0568 1.8658 11.6892L3.26276 10.4762V14.1153C3.26276 15.4018 3.6508 16.5138 4.42688 17.4511C5.20297 18.3885 6.13427 18.8571 7.22079 18.8571H17.1857C18.2722 18.8571 19.2035 18.3885 19.9796 17.4511C20.7557 16.5138 21.1438 15.4018 21.1438 14.1153C21.1748 13.7845 21.105 13.5088 20.9342 13.2882C20.7635 13.0677 20.5384 12.9574 20.259 12.9574Z" fill="#00BD7E"/>
</svg>
